<svg xmlns:xlink="http://www.w3.org/1999/xlink" xmlns="http://www.w3.org/2000/svg" width="1581.4525669015493" height="148" viewBox="0 0 350 32.75469722211702" class="looka-1j8o68f"><defs id="SvgjsDefs2357"></defs><g id="SvgjsG2358" featurekey="8L6ael-0" transform="matrix(2.182750130417265,0,0,2.182750130417265,-1.4271830177689122,-10.90030538622828)" fill="#252A34"><path d="M11.4 12.42 q0.86 0.54 1.31 1.32 t0.45 1.74 q0 2.26 -1.72 3.46 q-1.16 0.84 -3.14 1.06 l-0.08 0 q-0.28 0 -0.46 -0.18 q-0.24 -0.22 -0.24 -0.52 l0 -1.44 q0 -0.26 0.18 -0.46 t0.44 -0.24 q0.94 -0.1 1.46 -0.44 q0.4 -0.24 0.54 -0.62 q0.08 -0.22 0.08 -0.56 q0 -0.22 -0.08 -0.38 t-0.28 -0.3 q-0.58 -0.4 -1.5 -0.68 l-0.32 -0.1 q-1 -0.28 -1.84 -0.46 q-0.18 -0.04 -0.58 -0.14 l-0.22 -0.06 q-0.72 -0.18 -1.52 -0.5 q-1.18 -0.5 -1.94 -1.26 q-0.88 -0.88 -0.88 -2.32 q0 -1.98 1.52 -3.22 q1.04 -0.88 2.92 -1.12 q0.32 -0.04 0.55 0.18 t0.23 0.52 l0 1.44 q0 0.26 -0.16 0.46 t-0.41 0.23 t-0.51 0.11 q-0.58 0.22 -0.82 0.43 t-0.34 0.43 q-0.1 0.34 -0.1 0.64 q0 0.16 0.18 0.34 q0.28 0.28 0.82 0.5 q0.24 0.1 0.84 0.3 l2.5 0.62 l0.12 0.04 q0.94 0.26 1.36 0.4 q0.94 0.32 1.64 0.78 z M8.06 7.9 q-0.24 -0.06 -0.39 -0.25 t-0.15 -0.45 l0 -1.46 q0 -0.32 0.26 -0.54 q0.1 -0.1 0.26 -0.13 t0.3 -0.01 q1.76 0.28 2.86 1.2 q1.5 1.24 1.6 3.16 q0.02 0.28 -0.19 0.51 t-0.51 0.23 l-1.56 0 q-0.26 0 -0.46 -0.18 t-0.22 -0.44 q-0.08 -0.52 -0.34 -0.86 q-0.42 -0.5 -1.3 -0.76 q-0.06 0 -0.08 -0.02 l-0.08 0 z M5.72 17.08 q0.24 0.04 0.4 0.24 t0.16 0.44 l0 1.48 q0 0.32 -0.24 0.54 q-0.2 0.16 -0.46 0.16 l-0.1 0 q-1.86 -0.28 -3.06 -1.22 q-1.56 -1.24 -1.76 -3.46 q-0.04 -0.32 0.18 -0.55 t0.52 -0.23 l1.58 0 q0.28 0 0.48 0.19 t0.22 0.47 q0.06 1 0.98 1.54 q0.42 0.24 1.1 0.4 z M18.122 5 q0.28 0 0.49 0.21 t0.21 0.49 l0 13.28 q0 0.28 -0.21 0.49 t-0.49 0.21 l-1.5 0 q-0.28 0 -0.49 -0.21 t-0.21 -0.49 l0 -13.28 q0 -0.28 0.21 -0.49 t0.49 -0.21 l1.5 0 z M34.224000000000004 5 q0.2 0 0.37 0.1 t0.25 0.27 t0.07 0.37 t-0.11 0.36 l-5.44 7.84 l0 5.04 q0 0.28 -0.21 0.49 t-0.49 0.21 l-1.5 0 q-0.28 0 -0.49 -0.21 t-0.21 -0.49 l0 -5.04 l-5.46 -7.84 q-0.1 -0.16 -0.11 -0.36 t0.07 -0.37 t0.25 -0.27 t0.37 -0.1 l1.82 0 q0.34 0 0.58 0.3 l3.92 5.64 l3.92 -5.64 q0.24 -0.3 0.58 -0.3 l1.82 0 z M44.346000000000004 5.42 l5.6 13.22 q0.1 0.16 0.1 0.34 q0 0.28 -0.2 0.49 t-0.5 0.21 l-1.66 0 q-0.22 0 -0.39 -0.11 t-0.25 -0.31 l-1.46 -3.44 l-5.66 0 l-1.44 3.44 q-0.08 0.2 -0.25 0.31 t-0.39 0.11 l-1.66 0 q-0.18 0 -0.34 -0.09 t-0.25 -0.23 t-0.11 -0.31 t0.06 -0.33 l5.64 -13.3 q0.08 -0.2 0.25 -0.31 t0.39 -0.11 l1.88 0 q0.22 0 0.39 0.11 t0.25 0.31 z M42.766 9.06 l-1.66 3.98 l3.32 0 z M62.348 5 q0.28 0 0.48 0.21 t0.2 0.49 l0 1.44 q0 0.28 -0.2 0.49 t-0.48 0.21 l-3.94 0 l0 11.14 q0 0.28 -0.21 0.49 t-0.49 0.21 l-1.5 0 q-0.3 0 -0.5 -0.21 t-0.2 -0.49 l0 -11.14 l-3.94 0 q-0.28 0 -0.49 -0.21 t-0.21 -0.49 l0 -1.44 q0 -0.28 0.21 -0.49 t0.49 -0.21 l10.78 0 z M76.81 5 q0.28 0 0.48 0.21 t0.2 0.49 l0 13.28 q0 0.28 -0.2 0.49 t-0.48 0.21 l-1.52 0 q-0.28 0 -0.48 -0.21 t-0.2 -0.49 l0 -5.22 l-6.34 0 l0 5.22 q0 0.28 -0.21 0.49 t-0.49 0.21 l-1.5 0 q-0.28 0 -0.49 -0.21 t-0.21 -0.49 l0 -13.28 q0 -0.28 0.21 -0.49 t0.49 -0.21 l1.5 0 q0.28 0 0.49 0.21 t0.21 0.49 l0 5.2 l6.34 0 l0 -5.2 q0 -0.28 0.2 -0.49 t0.48 -0.21 l1.52 0 z M87.77199999999999 5 q3.28 0 5.38 2.2 q2.06 2.16 2.06 5.3 t-2.06 5.3 q-2.1 2.2 -5.38 2.2 t-5.38 -2.2 q-2.06 -2.16 -2.06 -5.3 t2.06 -5.3 q2.1 -2.2 5.38 -2.2 z M87.77199999999999 17.14 q2.06 0 3.32 -1.32 q1.22 -1.28 1.22 -3.31 t-1.24 -3.34 t-3.3 -1.31 t-3.3 1.31 t-1.24 3.34 t1.22 3.31 q1.26 1.32 3.32 1.32 z M105.03399999999999 10.58 l5.62 8 q0.12 0.16 0.14 0.36 t-0.07 0.37 t-0.26 0.27 t-0.37 0.1 l-1.9 0 q-0.16 0 -0.31 -0.08 t-0.25 -0.22 l-4.74 -6.82 l-1.94 1.82 l0 4.6 q0 0.28 -0.21 0.49 t-0.49 0.21 l-1.5 0 q-0.28 0 -0.49 -0.21 t-0.21 -0.49 l0 -13.28 q0 -0.28 0.21 -0.49 t0.49 -0.21 l1.5 0 q0.28 0 0.49 0.21 t0.21 0.49 l0 4.76 l5.62 -5.28 q0.18 -0.18 0.48 -0.18 l2.12 0 q0.2 0 0.38 0.12 t0.26 0.32 t0.04 0.4 t-0.2 0.36 z M119.356 5 q3.28 0 5.38 2.2 q2.06 2.16 2.06 5.3 t-2.06 5.3 q-2.1 2.2 -5.38 2.2 t-5.38 -2.2 q-2.06 -2.16 -2.06 -5.3 t2.06 -5.3 q2.1 -2.2 5.38 -2.2 z M119.356 17.14 q2.06 0 3.32 -1.32 q1.22 -1.28 1.22 -3.31 t-1.24 -3.34 t-3.3 -1.31 t-3.3 1.31 t-1.24 3.34 t1.22 3.31 q1.26 1.32 3.32 1.32 z M140.498 7.140000000000001 q0 0.28 -0.16 0.44 l-7.72 9.3 l7.2 0 q0.28 0 0.48 0.21 t0.2 0.49 l0 1.4 q0 0.28 -0.2 0.49 t-0.48 0.21 l-10.52 0 q-0.28 0 -0.49 -0.21 t-0.21 -0.49 l0 -1.42 q0 -0.24 0.16 -0.44 l7.72 -9.32 l-7.06 0 q-0.28 0 -0.49 -0.21 t-0.21 -0.49 l0 -1.4 q0 -0.28 0.21 -0.49 t0.49 -0.21 l10.4 0 q0.28 0 0.48 0.21 t0.2 0.49 l0 1.44 z M150.54 5.42 l5.6 13.22 q0.1 0.16 0.1 0.34 q0 0.28 -0.2 0.49 t-0.5 0.21 l-1.66 0 q-0.22 0 -0.39 -0.11 t-0.25 -0.31 l-1.46 -3.44 l-5.66 0 l-1.44 3.44 q-0.08 0.2 -0.25 0.31 t-0.39 0.11 l-1.66 0 q-0.18 0 -0.34 -0.09 t-0.25 -0.23 t-0.11 -0.31 t0.06 -0.33 l5.64 -13.3 q0.08 -0.2 0.25 -0.31 t0.39 -0.11 l1.88 0 q0.22 0 0.39 0.11 t0.25 0.31 z M148.96 9.06 l-1.66 3.98 l3.32 0 z M160.30200000000002 16.28 q0.28 0 0.49 0.2 t0.21 0.5 l0 2.08 q0 0.28 -0.21 0.49 t-0.49 0.21 l-1.82 0 q-0.3 0 -0.5 -0.21 t-0.2 -0.49 l0 -2.08 q0 -0.3 0.2 -0.5 t0.5 -0.2 l1.82 0 z" fill="#fff"></path></g></svg>